<?xml version="1.0" encoding="UTF-8"?>
<!DOCTYPE svg PUBLIC "-//W3C//DTD SVG 1.1//EN" "http://www.w3.org/Graphics/SVG/1.1/DTD/svg11.dtd">
<svg xmlns="http://www.w3.org/2000/svg" version="1.1" width="1134px" height="228px" style="shape-rendering:geometricPrecision; text-rendering:geometricPrecision; image-rendering:optimizeQuality; fill-rule:evenodd; clip-rule:evenodd" xmlns:xlink="http://www.w3.org/1999/xlink">
<g><path style="opacity:0.95" fill="#fefffe" d="M 386.5,-0.5 C 391.167,-0.5 395.833,-0.5 400.5,-0.5C 412.018,4.81728 416.184,13.8173 413,26.5C 405.396,43.9243 392.896,48.7577 375.5,41C 365.09,29.4513 365.09,17.7846 375.5,6C 378.933,3.28937 382.6,1.1227 386.5,-0.5 Z"/></g>
<g><path style="opacity:0.953" fill="#fefffe" d="M 744.5,-0.5 C 749.167,-0.5 753.833,-0.5 758.5,-0.5C 772.996,7.79788 776.163,19.4645 768,34.5C 757.458,46.7372 745.291,48.7372 731.5,40.5C 725.861,34.2276 724.027,26.8943 726,18.5C 729.017,8.98387 735.184,2.65054 744.5,-0.5 Z"/></g>
<g><path style="opacity:0.978" fill="#fefffe" d="M 940.5,-0.5 C 993.5,-0.5 1046.5,-0.5 1099.5,-0.5C 1117,4.83632 1127.83,16.503 1132,34.5C 1132.67,86.5 1132.67,138.5 1132,190.5C 1126.89,211.946 1113.39,223.779 1091.5,226C 1043.83,226.667 996.167,226.667 948.5,226C 926.607,223.775 913.107,211.942 908,190.5C 907.333,138.5 907.333,86.5 908,34.5C 912.164,16.5067 922.998,4.84004 940.5,-0.5 Z M 1016.5,26.5 C 1068.84,32.0286 1091.67,61.0286 1085,113.5C 1086.65,117.29 1088.15,121.123 1089.5,125C 1085.36,135.787 1080.52,146.287 1075,156.5C 1073.83,157.667 1072.67,158.833 1071.5,160C 1065.05,162.946 1058.38,165.28 1051.5,167C 1047.48,170.556 1045.31,175.056 1045,180.5C 1041.53,185.491 1036.7,188.324 1030.5,189C 1018.69,191.732 1007.35,190.399 996.5,185C 994.951,183.786 993.785,182.286 993,180.5C 992.689,175.056 990.523,170.556 986.5,167C 979.618,165.28 972.951,162.946 966.5,160C 959.065,149.298 953.065,137.798 948.5,125.5C 949.719,121.395 951.219,117.395 953,113.5C 945.981,63.4368 967.148,34.4368 1016.5,26.5 Z"/></g>
<g><path style="opacity:0.97" fill="#fefffe" d="M -0.5,178.5 C -0.5,176.5 -0.5,174.5 -0.5,172.5C 12.0086,118.135 24.342,63.6355 36.5,9C 56.4065,8.17411 76.2399,8.34078 96,9.5C 100.366,39.6941 105.366,69.6941 111,99.5C 129.041,69.2504 147.208,39.0837 165.5,9C 186.5,8.33333 207.5,8.33333 228.5,9C 215.595,65.3565 203.262,121.857 191.5,178.5C 176.5,178.5 161.5,178.5 146.5,178.5C 154.49,142.88 161.99,107.213 169,71.5C 147.634,106.702 126.468,142.036 105.5,177.5C 98.5316,178.497 91.5316,178.83 84.5,178.5C 79.2072,142.41 73.3739,106.41 67,70.5C 58.8469,106.444 51.0135,142.444 43.5,178.5C 28.8333,178.5 14.1667,178.5 -0.5,178.5 Z"/></g>
<g><path style="opacity:0.965" fill="#fefffe" d="M 660.5,22.5 C 674.171,22.3334 687.837,22.5001 701.5,23C 698.833,33.6667 696.167,44.3333 693.5,55C 701.827,55.4997 710.16,55.6664 718.5,55.5C 715.91,66.7837 713.577,78.117 711.5,89.5C 702.833,89.5 694.167,89.5 685.5,89.5C 683.118,102.911 680.284,116.245 677,129.5C 676.333,132.833 676.333,136.167 677,139.5C 677.833,141.667 679.333,143.167 681.5,144C 686.204,144.648 690.871,144.481 695.5,143.5C 695.334,152.839 695.5,162.173 696,171.5C 704.187,133.419 712.687,95.4188 721.5,57.5C 734.483,56.5009 747.483,56.1675 760.5,56.5C 751.832,97.1705 743.166,137.837 734.5,178.5C 720.656,179.124 706.989,178.458 693.5,176.5C 679.945,181.361 666.278,181.528 652.5,177C 636.149,170.682 629.983,158.849 634,141.5C 638.153,124.223 641.986,106.89 645.5,89.5C 638.8,89.83 632.134,89.4967 625.5,88.5C 626.673,84.4876 627.506,80.4876 628,76.5C 622.971,83.902 617.471,90.902 611.5,97.5C 598.807,84.653 583.807,80.4864 566.5,85C 562.124,89.8964 563.124,93.563 569.5,96C 581.718,99.7392 593.718,104.073 605.5,109C 622.344,119.191 627.51,133.691 621,152.5C 613.141,169.194 599.974,178.694 581.5,181C 559.769,183.99 539.436,179.99 520.5,169C 516.131,166.143 512.131,162.81 508.5,159C 515.152,150.184 522.152,141.684 529.5,133.5C 542.541,146.355 558.208,152.521 576.5,152C 587.103,146.414 586.769,141.08 575.5,136C 563.545,132.428 551.878,128.095 540.5,123C 523.626,110.314 520.126,94.4806 530,75.5C 539.281,61.4357 552.448,53.9357 569.5,53C 591.92,51.1416 611.753,57.3083 629,71.5C 630.628,66.3509 632.128,61.1843 633.5,56C 640.191,55.8309 646.858,55.3309 653.5,54.5C 656.345,43.9414 658.678,33.2748 660.5,22.5 Z"/></g>
<g><path style="opacity:0.921" fill="#fefffe" d="M 1017.5,47.5 C 1018.68,47.281 1019.68,47.6143 1020.5,48.5C 1022.91,53.6587 1025.58,58.6587 1028.5,63.5C 1034.38,65.203 1040.38,66.3696 1046.5,67C 1046.96,67.414 1047.29,67.914 1047.5,68.5C 1043.01,72.8234 1038.34,76.9901 1033.5,81C 1034.94,86.9782 1036.27,92.9782 1037.5,99C 1035.09,99.4838 1032.75,99.1505 1030.5,98C 1026.73,96.0303 1022.89,94.197 1019,92.5C 1013.42,95.5448 1007.58,97.8781 1001.5,99.5C 1002.34,92.8341 1002.84,86.1675 1003,79.5C 998.481,75.9784 994.315,72.145 990.5,68C 996.789,66.549 1003.12,65.049 1009.5,63.5C 1012.7,58.4235 1015.37,53.0901 1017.5,47.5 Z"/></g>
<g><path style="opacity:0.969" fill="#fefffe" d="M 266.5,52.5 C 283.653,50.7673 297.987,56.1007 309.5,68.5C 311.137,64.3174 312.137,59.9841 312.5,55.5C 325.833,55.5 339.167,55.5 352.5,55.5C 343.817,96.232 334.817,136.899 325.5,177.5C 312.167,178.833 298.833,178.833 285.5,177.5C 286.721,174.238 287.221,170.904 287,167.5C 271.484,182.117 253.651,185.617 233.5,178C 221.316,172.154 213.482,162.654 210,149.5C 203.482,116.377 212.315,88.2099 236.5,65C 245.537,58.3088 255.537,54.1422 266.5,52.5 Z M 272.5,88.5 C 285.011,86.4455 295.344,90.1121 303.5,99.5C 300.669,111.49 297.836,123.49 295,135.5C 284.953,146.638 273.119,149.138 259.5,143C 249.535,134.174 246.701,123.341 251,110.5C 255.019,99.9818 262.186,92.6485 272.5,88.5 Z"/></g>
<g><path style="opacity:0.96" fill="#fefffe" d="M 457.5,52.5 C 483.187,50.0956 502.687,59.7623 516,81.5C 522,96.8377 523,112.504 519,128.5C 490.725,130.487 462.225,131.154 433.5,130.5C 433.46,133.425 434.293,136.091 436,138.5C 445.718,149.645 457.885,153.479 472.5,150C 478.794,148.501 484.794,146.501 490.5,144C 494.628,152.424 498.628,160.924 502.5,169.5C 493.765,175.581 484.098,179.414 473.5,181C 452.406,184.513 432.739,180.847 414.5,170C 400.143,158.781 393.143,143.947 393.5,125.5C 394.13,98.0592 405.797,76.8925 428.5,62C 437.738,57.0865 447.405,53.9198 457.5,52.5 Z M 460.5,83.5 C 475.267,82.5233 483.934,89.19 486.5,103.5C 470.153,103.833 453.82,103.499 437.5,102.5C 441.923,92.0633 449.59,85.7299 460.5,83.5 Z"/></g>
<g><path style="opacity:0.963" fill="#fefffe" d="M 815.5,52.5 C 834.274,50.7479 851.274,55.2479 866.5,66C 870.235,69.4809 873.235,73.4809 875.5,78C 865.996,85.6663 856.329,93.1663 846.5,100.5C 836.668,88.2538 824.335,85.0871 809.5,91C 792.449,101.706 787.283,116.539 794,135.5C 805.108,147.499 817.942,149.666 832.5,142C 835.295,140.207 837.795,138.04 840,135.5C 847.355,144.021 854.522,152.688 861.5,161.5C 851.759,172.052 839.759,178.552 825.5,181C 803.479,184.579 783.812,179.579 766.5,166C 752.747,151.177 747.581,133.677 751,113.5C 758.494,78.1689 779.994,57.8355 815.5,52.5 Z"/></g>
<g><path style="opacity:0.963" fill="#fefffe" d="M 335.5,227.5 C 327.5,227.5 319.5,227.5 311.5,227.5C 303.623,226.369 296.29,223.536 289.5,219C 288.978,218.439 288.645,217.772 288.5,217C 293.493,208.016 298.493,199.016 303.5,190C 308.283,192.454 313.45,194.288 319,195.5C 327.027,194.472 332.361,190.138 335,182.5C 345.135,139.96 354.635,97.2934 363.5,54.5C 376.833,54.5 390.167,54.5 403.5,54.5C 393.958,101.043 383.458,147.377 372,193.5C 365.678,211.329 353.512,222.662 335.5,227.5 Z"/></g>
<g><path style="opacity:0.934" fill="#fefffe" d="M 966.5,116.5 C 969.85,116.335 973.183,116.502 976.5,117C 987.418,121.862 998.418,126.528 1009.5,131C 1013.85,137.033 1012.51,141.699 1005.5,145C 993.28,148.653 981.28,147.986 969.5,143C 962.963,137.245 960.797,130.078 963,121.5C 963.697,119.416 964.864,117.749 966.5,116.5 Z"/></g>
<g><path style="opacity:0.933" fill="#fefffe" d="M 1061.5,116.5 C 1064.85,116.335 1068.18,116.502 1071.5,117C 1073,117.833 1074.17,119 1075,120.5C 1078.27,133.817 1073.43,142.317 1060.5,146C 1051.04,148.324 1041.7,147.991 1032.5,145C 1025.49,141.699 1024.15,137.033 1028.5,131C 1039.81,126.629 1050.81,121.795 1061.5,116.5 Z"/></g>
<g><path style="opacity:0.895" fill="#fefffe" d="M 1017.5,147.5 C 1019.39,147.297 1020.89,147.963 1022,149.5C 1025.39,153.898 1028.39,158.565 1031,163.5C 1031.72,173.768 1027.72,176.102 1019,170.5C 1010.28,176.102 1006.28,173.768 1007,163.5C 1010.33,158.014 1013.83,152.68 1017.5,147.5 Z"/></g>
</svg>
