<svg width="200" height="200" viewBox="0 0 20 20" fill="none" xmlns="http://www.w3.org/2000/svg">
<path class="back" fill="#e81c5b" d="M9.99931 19.1668C15.0619 19.1668 19.166 15.0628 19.166 10.0002C19.166 4.93755 15.0619 0.833496 9.99931 0.833496C4.9367 0.833496 0.832642 4.93755 0.832642 10.0002C0.832642 15.0628 4.9367 19.1668 9.99931 19.1668Z"/>
<path class="m" fill="white" d="M8.2834 11.8721C8.05388 12.1028 7.89926 12.3974 7.83973 12.7173C7.83973 13.0271 7.99465 13.7971 8.42732 13.7971C8.70232 13.7971 9.23582 13.1875 9.40265 12.984C10.625 11.4209 12.0484 10.0259 13.6358 8.8352L13.6578 8.85628C12.8805 9.83162 11.4752 11.4339 11.4752 12.7173C11.4752 13.3379 11.7191 14.0116 12.4506 14.0116C13.4039 14.0116 15.7863 12.1939 16.0521 11.4559L16.0081 11.0499C14.5112 12.4496 13.6468 12.9309 13.3388 12.9309C13.073 12.9309 12.9511 12.621 12.9511 12.4065C13.1223 11.4878 13.5663 10.642 14.2252 9.9792L15.9431 7.96253C16.076 7.80212 16.4197 7.42812 16.4197 7.21362C16.4197 6.99912 15.9541 6.29695 15.6552 6.29695C15.4554 6.29695 15.2345 6.52153 15.0897 6.63887C13.6376 7.75078 12.3635 8.91678 11.0004 10.0498L10.9784 10.0287C11.4367 9.35495 12.6284 7.77187 12.6284 6.98078C12.615 6.7776 12.5231 6.58757 12.3723 6.45077C12.2215 6.31396 12.0234 6.24106 11.8199 6.24745C11.3616 6.25845 10.4238 7.06053 10.0141 7.43453L8.2504 9.07078L8.2284 9.0497C8.50398 8.44757 8.7338 7.82553 8.9159 7.18887C8.91064 7.0437 8.86457 6.90296 8.78298 6.78278L8.51715 6.33362C8.40623 6.15028 8.36223 6.00178 8.0964 5.9917C7.37449 6.16448 6.67343 6.41497 6.00548 6.73878L4.75332 7.2952L4.72215 7.27412C5.1539 6.90745 5.30973 6.7177 5.30973 6.65353C5.30973 6.58937 5.23182 6.54628 5.17682 6.54628C5.07498 6.57453 4.98093 6.62563 4.90182 6.6957C3.91548 7.36945 3.98515 7.34837 3.88248 7.4767C3.74234 7.88603 3.64646 8.30919 3.59648 8.73895C3.54148 8.99562 3.68815 9.13495 3.86232 9.13495C4.4279 9.13495 3.89532 9.11387 7.30898 7.57662C7.41662 7.51503 7.5337 7.47167 7.65548 7.44828C7.84432 7.44828 8.04323 7.66187 6.87998 9.67303L4.56082 12.4899C4.68273 12.8218 4.90457 13.666 5.36932 13.666C5.72407 13.666 6.0009 13.2599 6.18973 13.0134L7.85165 10.8564L10.51 8.0762C10.5879 7.99095 10.7208 7.85162 10.8537 7.85162C10.9866 7.85162 11.0196 7.96895 10.8317 8.30995C10.3221 9.2379 9.72082 10.1125 9.0369 10.9206L8.2834 11.8721Z"/>
</svg>
